<svg xmlns="http://www.w3.org/2000/svg" width="432.39" height="154.025" viewBox="0 0 432.39 154.025"><defs><style>.a{fill:#fff;}</style></defs><g transform="translate(0)"><g transform="translate(0 0)"><path class="a" d="M67.335,149.934,6.853,90.365A25.641,25.641,0,0,1,0,73.4L1.337,16.225A14.8,14.8,0,0,1,15.4,1.977L73.126,0a25.72,25.72,0,0,1,16.5,6.665l12.5,12.272a16.069,16.069,0,0,0-2.16,1.747,12.816,12.816,0,0,0-1.838,2.528L85.443,10.94A19.633,19.633,0,0,0,73.172,5.976H72.8L15.631,7.952a8.733,8.733,0,0,0-8.318,8.411L5.98,73.542a19.982,19.982,0,0,0,5.1,12.594l60.482,59.569a8.41,8.41,0,0,0,11.628-.046l22.29-22.293h8.227L87.374,149.843a14.063,14.063,0,0,1-10.065,4.182H77.25A14.063,14.063,0,0,1,67.335,149.934Zm305.078-8.457a24.488,24.488,0,0,1-5.377-1.7l2.849-12.548a25.6,25.6,0,0,0,9.238,1.793c4.09,0,7.261-.965,9.559-2.9a23.654,23.654,0,0,0,6.021-8.963q-7.4-14.249-14.248-31.072a342.756,342.756,0,0,1-12.133-35.714h16.683q1.287,5.424,3.171,11.767t4.09,12.87q2.206,6.527,4.688,13.008t4.917,12.043q4.137-11.491,7.721-24.545t6.572-25.142H432.39a496.425,496.425,0,0,1-24.266,69.865,70.256,70.256,0,0,1-5.332,9.974,29.445,29.445,0,0,1-6.066,6.849,21.6,21.6,0,0,1-7.537,3.953,36.176,36.176,0,0,1-16.775.46Zm-112.279-22.89a93.463,93.463,0,0,1-11.72-2.574V20.224l15.672-2.574v35.07a36.866,36.866,0,0,1,6.664-2.574,33.5,33.5,0,0,1,21.463,1.379,25.049,25.049,0,0,1,9.376,7.17,33.1,33.1,0,0,1,5.745,11.169A49.04,49.04,0,0,1,309.357,84.3a42.658,42.658,0,0,1-2.39,14.663,32.042,32.042,0,0,1-6.848,11.215,29.784,29.784,0,0,1-10.8,7.124,39.093,39.093,0,0,1-14.34,2.482h-.08A91.848,91.848,0,0,1,260.134,118.587Zm3.906-52.4V105.12a43.5,43.5,0,0,0,4.32.689,54.225,54.225,0,0,0,6.388.322q8.686,0,13.558-5.883t4.917-16.225h.092q0-9.974-3.953-15.766t-12.5-5.837A24.034,24.034,0,0,0,264.041,66.188ZM67.7,119.736a54.908,54.908,0,0,1-14.339-1.517,74.266,74.266,0,0,1-7.629-2.39l2.712-13.053a69.649,69.649,0,0,0,8.319,2.712,43.056,43.056,0,0,0,11.076,1.287l-.046.046q6.2,0,9.054-1.471a5.3,5.3,0,0,0,2.85-5.1,6.451,6.451,0,0,0-3.034-5.561,43.566,43.566,0,0,0-10.019-4.78A77.755,77.755,0,0,1,58.787,86.6a27.022,27.022,0,0,1-6.158-4.091,16.642,16.642,0,0,1-4.091-5.654,19.882,19.882,0,0,1-1.471-8.09q0-9.33,6.848-14.708T72.62,48.722a57.909,57.909,0,0,1,11.4,1.1,56.484,56.484,0,0,1,8.135,2.114L89.3,64.626a38.325,38.325,0,0,0-6.618-2.115,39.8,39.8,0,0,0-9.33-.965,16.525,16.525,0,0,0-7.767,1.609A5.331,5.331,0,0,0,62.6,68.119a7.174,7.174,0,0,0,.6,2.988,6.392,6.392,0,0,0,2.022,2.39A20.807,20.807,0,0,0,68.99,75.7a59.755,59.755,0,0,0,5.7,2.253A86.45,86.45,0,0,1,84.156,82a25.725,25.725,0,0,1,6.388,4.55A15.532,15.532,0,0,1,94.221,92.3a22.935,22.935,0,0,1,1.149,7.768q0,9.7-7.169,14.708-7.1,4.965-20.256,4.965Zm130.249-2.712a28.957,28.957,0,0,1-10.846-7.4A30.206,30.206,0,0,1,180.763,98.5a45.322,45.322,0,0,1-2.068-14.019v.046a42.526,42.526,0,0,1,2.665-15.674,33.045,33.045,0,0,1,7.032-11.215A29.327,29.327,0,0,1,198.5,50.928a31.3,31.3,0,0,1,11.628-2.252q13.971,0,21.785,8.687t7.813,25.877c0,.828-.046,1.839-.092,2.9s-.092,2.068-.184,2.9H194.872q.644,8.135,5.745,12.594t14.8,4.459a49.013,49.013,0,0,0,10.433-1.057,43.593,43.593,0,0,0,7.445-2.206l2.068,12.824a25.825,25.825,0,0,1-3.539,1.379,51.651,51.651,0,0,1-5.193,1.287c-1.93.413-4.044.689-6.3.965a60.074,60.074,0,0,1-6.848.414A41.427,41.427,0,0,1,197.951,117.024Zm5.929-53.961a14.376,14.376,0,0,0-4.6,3.585,16.221,16.221,0,0,0-2.9,5.056,27.4,27.4,0,0,0-1.425,5.838L224.1,77.5a20.63,20.63,0,0,0-.919-6.159,14.836,14.836,0,0,0-2.666-5.056,12.5,12.5,0,0,0-4.274-3.356,13.513,13.513,0,0,0-6.021-1.241l-.276,0A14.009,14.009,0,0,0,203.88,63.063Zm136.27,56.4a49.782,49.782,0,0,1-11.122-1.149,23.349,23.349,0,0,1-8.594-3.769,17.511,17.511,0,0,1-5.561-6.757,23.117,23.117,0,0,1-2.022-10.2,19,19,0,0,1,2.252-9.836,18.7,18.7,0,0,1,6.158-6.481,26.2,26.2,0,0,1,9.008-3.631,50.507,50.507,0,0,1,10.663-1.1,49.641,49.641,0,0,1,5.423.321,50.234,50.234,0,0,1,6.066,1.1V75.381a20.131,20.131,0,0,0-.644-5.194,10.752,10.752,0,0,0-2.252-4.321,10.566,10.566,0,0,0-4.274-2.9,18.518,18.518,0,0,0-6.664-1.012,58.952,58.952,0,0,0-9.973.782,42.9,42.9,0,0,0-7.4,1.792l-1.93-12.686a60.987,60.987,0,0,1,8.686-2.068,67.894,67.894,0,0,1,12.18-1.057A38.322,38.322,0,0,1,353.2,50.652a21.188,21.188,0,0,1,8.5,5.424,20.5,20.5,0,0,1,4.55,8.457,41.689,41.689,0,0,1,1.333,10.94v41q-3.631.782-10.938,1.885a112.418,112.418,0,0,1-15.726,1.106Zm3.079-31.715a36.341,36.341,0,0,0-5.239.414,16.647,16.647,0,0,0-4.78,1.425,8.78,8.78,0,0,0-3.447,2.9,8.188,8.188,0,0,0-1.287,4.735q0,5.561,3.493,7.676T341.437,107v.092a57.535,57.535,0,0,0,10.984-.781V88.94a31.421,31.421,0,0,0-3.768-.782,35.129,35.129,0,0,0-5.373-.414Zm-219,30.336v-9.744a121.369,121.369,0,0,1,7.124-11.261q4.275-6.067,8.824-12.226t9.008-11.721q4.458-5.561,7.951-9.7H125.887V50.376H177.27V61.408c-1.747,1.792-4,4.366-6.8,7.63s-5.791,6.941-9.008,10.939-6.388,8.182-9.651,12.548-6.159,8.5-8.732,12.5h34.929v13.054Zm-22.014-.037V50.376H117.89v67.668Zm-86.8-84.813A12.766,12.766,0,1,1,27.207,41.1,12.778,12.778,0,0,1,15.417,33.231Zm5.418-7.56a6.85,6.85,0,0,0,1.505,7.469,6.985,6.985,0,0,0,9.652,0,6.848,6.848,0,1,0-11.157-7.469Zm82.3,11.928a8.945,8.945,0,0,1-2.849-6.987,10.441,10.441,0,0,1,.873-4.321,8.234,8.234,0,0,1,1.976-2.8,9.836,9.836,0,0,1,6.848-2.574,9.7,9.7,0,0,1,6.71,2.574,9.113,9.113,0,0,1,2.85,7.124A8.945,8.945,0,0,1,116.7,37.6a9.7,9.7,0,0,1-6.71,2.62h-.162A9.837,9.837,0,0,1,103.137,37.6Z" transform="translate(0 0)"/></g></g></svg>